<svg width="12" height="12" viewBox="0 0 12 12" fill="none" xmlns="http://www.w3.org/2000/svg">
<path d="M6 2.74999L5.73 3.00999C5.76498 3.04629 5.80692 3.07515 5.85331 3.09487C5.8997 3.11459 5.94959 3.12475 6 3.12475C6.05041 3.12475 6.1003 3.11459 6.14669 3.09487C6.19308 3.07515 6.23502 3.04629 6.27 3.00999L6 2.74999ZM4.713 9.16099C3.955 8.56349 3.1265 7.97999 2.469 7.23999C1.825 6.51399 1.375 5.66749 1.375 4.56849H0.625C0.625 5.90149 1.18 6.91849 1.9085 7.73799C2.6235 8.54299 3.5355 9.18799 4.2485 9.74999L4.713 9.16099ZM1.375 4.56849C1.375 3.49349 1.9825 2.59149 2.812 2.21199C3.618 1.84349 4.701 1.94099 5.73 3.00999L6.27 2.49049C5.05 1.22199 3.632 1.01249 2.5 1.52999C1.393 2.03649 0.625 3.21249 0.625 4.56849H1.375ZM4.2485 9.74999C4.505 9.95199 4.78 10.167 5.0585 10.33C5.337 10.493 5.655 10.625 6 10.625V9.87499C5.845 9.87499 5.663 9.81499 5.437 9.68249C5.2105 9.55049 4.976 9.36849 4.713 9.16099L4.2485 9.74999ZM7.7515 9.74999C8.4645 9.18749 9.3765 8.54349 10.0915 7.73799C10.82 6.91799 11.375 5.90149 11.375 4.56849H10.625C10.625 5.66749 10.175 6.51399 9.531 7.23999C8.8735 7.97999 8.045 8.56349 7.287 9.16099L7.7515 9.74999ZM11.375 4.56849C11.375 3.21249 10.6075 2.03649 9.5 1.52999C8.368 1.01249 6.951 1.22199 5.73 2.48999L6.27 3.00999C7.299 1.94149 8.382 1.84349 9.188 2.21199C10.0175 2.59149 10.625 3.49299 10.625 4.56849H11.375ZM7.287 9.16099C7.024 9.36849 6.7895 9.55049 6.563 9.68249C6.3365 9.81449 6.155 9.87499 6 9.87499V10.625C6.345 10.625 6.663 10.4925 6.9415 10.33C7.2205 10.167 7.495 9.95199 7.7515 9.74999L7.287 9.16099Z" fill="#F8F8F8"/>
</svg>
