<svg width="34" height="34" viewBox="0 0 34 34" fill="none" xmlns="http://www.w3.org/2000/svg">
<path fill-rule="evenodd" clip-rule="evenodd" d="M29.7493 24.083C29.7493 25.9616 29.0031 27.7633 27.6747 29.0917C26.3463 30.4201 24.5446 31.1663 22.666 31.1663H15.5827C15.207 31.1663 14.8466 31.0171 14.5809 30.7514C14.3153 30.4857 14.166 30.1254 14.166 29.7497C14.166 29.374 14.3153 29.0136 14.5809 28.7479C14.8466 28.4823 15.207 28.333 15.5827 28.333H22.666C23.7932 28.333 24.8742 27.8852 25.6712 27.0882C26.4682 26.2912 26.916 25.2102 26.916 24.083V9.91634C26.916 8.78917 26.4682 7.70817 25.6712 6.91114C24.8742 6.11411 23.7932 5.66634 22.666 5.66634H15.5827C15.207 5.66634 14.8466 5.51709 14.5809 5.25141C14.3153 4.98573 14.166 4.6254 14.166 4.24967C14.166 3.87395 14.3153 3.51362 14.5809 3.24794C14.8466 2.98226 15.207 2.83301 15.5827 2.83301H22.666C24.5446 2.83301 26.3463 3.57929 27.6747 4.90767C29.0031 6.23605 29.7493 8.03772 29.7493 9.91634V24.083Z" fill="#999999"/>
<path fill-rule="evenodd" clip-rule="evenodd" d="M14.8325 10.3644C14.9597 10.2286 15.1125 10.1191 15.282 10.0423C15.4515 9.96547 15.6345 9.92282 15.8206 9.91676C16.0066 9.91071 16.192 9.94138 16.3662 10.007C16.5404 10.0726 16.6999 10.172 16.8357 10.2993L23.6357 16.6743C23.7772 16.8068 23.89 16.9669 23.9672 17.1448C24.0443 17.3227 24.0841 17.5145 24.0841 17.7084C24.0841 17.9023 24.0443 18.0942 23.9672 18.272C23.89 18.4499 23.7772 18.6101 23.6357 18.7426L16.8357 25.1176C16.6999 25.2449 16.5403 25.3441 16.3661 25.4097C16.192 25.4753 16.0066 25.5059 15.8206 25.4999C15.6346 25.4938 15.4516 25.4512 15.282 25.3744C15.1125 25.2977 14.9598 25.1882 14.8325 25.0524C14.7052 24.9166 14.606 24.7571 14.5404 24.5829C14.4748 24.4088 14.4442 24.2234 14.4502 24.0374C14.4563 23.8513 14.4989 23.6684 14.5757 23.4988C14.6524 23.3293 14.7619 23.1765 14.8977 23.0493L19.0839 19.1251H5.66667C5.29094 19.1251 4.93061 18.9759 4.66493 18.7102C4.39926 18.4445 4.25 18.0842 4.25 17.7084C4.25 17.3327 4.39926 16.9724 4.66493 16.7067C4.93061 16.441 5.29094 16.2918 5.66667 16.2918H19.0839L14.8977 12.3676C14.7618 12.2404 14.6523 12.0877 14.5755 11.9181C14.4987 11.7486 14.456 11.5656 14.45 11.3795C14.4439 11.1935 14.4746 11.0081 14.5402 10.8339C14.6059 10.6597 14.7052 10.5002 14.8325 10.3644Z" fill="#999999"/>
</svg>
