<svg width="80" height="80" viewBox="0 0 80 80" fill="none" xmlns="http://www.w3.org/2000/svg">
<path d="M30.5835 36.083C27.9724 33.4719 26.6668 30.333 26.6668 26.6663C26.6668 22.9997 27.9724 19.8608 30.5835 17.2497C33.1946 14.6386 36.3335 13.333 40.0002 13.333C43.6668 13.333 46.8057 14.6386 49.4168 17.2497C52.0279 19.8608 53.3335 22.9997 53.3335 26.6663C53.3335 30.333 52.0279 33.4719 49.4168 36.083C46.8057 38.6941 43.6668 39.9997 40.0002 39.9997C36.3335 39.9997 33.1946 38.6941 30.5835 36.083ZM13.3335 59.9997V57.333C13.3335 55.4441 13.8202 53.7086 14.7935 52.1263C15.7668 50.5441 17.0579 49.3352 18.6668 48.4997C22.1113 46.7774 25.6113 45.4863 29.1668 44.6263C32.7224 43.7663 36.3335 43.3352 40.0002 43.333C43.6668 43.3308 47.2779 43.7619 50.8335 44.6263C54.389 45.4908 57.889 46.7819 61.3335 48.4997C62.9446 49.333 64.2368 50.5419 65.2102 52.1263C66.1835 53.7108 66.669 55.4463 66.6668 57.333V59.9997C66.6668 61.833 66.0146 63.403 64.7102 64.7097C63.4057 66.0163 61.8357 66.6686 60.0002 66.6663H20.0002C18.1668 66.6663 16.5979 66.0141 15.2935 64.7097C13.9891 63.4052 13.3357 61.8352 13.3335 59.9997Z" fill="white"/>
</svg>
