<svg width="34" height="34" viewBox="0 0 34 34" fill="none" xmlns="http://www.w3.org/2000/svg">
<path d="M27.6243 15.4774L25.641 17.4253C25.3813 17.685 25.0569 17.821 24.6678 17.8333C24.2787 17.8456 23.942 17.7096 23.6577 17.4253C23.398 17.1656 23.2681 16.835 23.2681 16.4337C23.2681 16.0323 23.398 15.7017 23.6577 15.442L25.6056 13.4587L23.6577 11.5107C23.398 11.251 23.2681 10.9266 23.2681 10.5375C23.2681 10.1484 23.398 9.81169 23.6577 9.52741C23.941 9.24408 24.2777 9.10241 24.6678 9.10241C25.0578 9.10241 25.394 9.24408 25.6764 9.52741L27.6243 11.4753L29.5723 9.49199C29.832 9.20866 30.1564 9.06699 30.5455 9.06699C30.9346 9.06699 31.2713 9.20866 31.5556 9.49199C31.8399 9.77533 31.9815 10.112 31.9806 10.5021C31.9797 10.8921 31.838 11.2284 31.5556 11.5107L29.6077 13.4587L31.591 15.442C31.8743 15.7253 32.0099 16.0559 31.9976 16.4337C31.9853 16.8114 31.838 17.142 31.5556 17.4253C31.2723 17.685 30.9417 17.821 30.5639 17.8333C30.1862 17.8456 29.8556 17.7096 29.5723 17.4253L27.6243 15.4774ZM8.74727 15.3357C7.63754 14.226 7.08268 12.892 7.08268 11.3337C7.08268 9.77533 7.63754 8.4413 8.74727 7.33158C9.85699 6.22185 11.191 5.66699 12.7493 5.66699C14.3077 5.66699 15.6417 6.22185 16.7514 7.33158C17.8612 8.4413 18.416 9.77533 18.416 11.3337C18.416 12.892 17.8612 14.226 16.7514 15.3357C15.6417 16.4455 14.3077 17.0003 12.7493 17.0003C11.191 17.0003 9.85699 16.4455 8.74727 15.3357ZM1.41602 25.5003V24.367C1.41602 23.5642 1.62285 22.8266 2.03652 22.1542C2.45018 21.4817 2.9989 20.9679 3.68268 20.6128C5.14657 19.8809 6.63407 19.3322 8.14518 18.9667C9.65629 18.6012 11.191 18.4179 12.7493 18.417C14.3077 18.416 15.8424 18.5993 17.3535 18.9667C18.8646 19.334 20.3521 19.8828 21.816 20.6128C22.5007 20.967 23.0499 21.4808 23.4636 22.1542C23.8773 22.8275 24.0836 23.5652 24.0827 24.367V25.5003C24.0827 26.2795 23.8055 26.9467 23.2511 27.5021C22.6967 28.0574 22.0295 28.3346 21.2493 28.3337H4.24935C3.47018 28.3337 2.8034 28.0565 2.24902 27.5021C1.69463 26.9477 1.41696 26.2804 1.41602 25.5003Z" fill="#999999"/>
</svg>
