<svg width="12" height="12" viewBox="0 0 12 12" fill="none" xmlns="http://www.w3.org/2000/svg">
<path fill-rule="evenodd" clip-rule="evenodd" d="M4.125 6C4.125 5.50272 4.32254 5.02581 4.67417 4.67417C5.02581 4.32254 5.50272 4.125 6 4.125C6.49728 4.125 6.97419 4.32254 7.32583 4.67417C7.67746 5.02581 7.875 5.50272 7.875 6C7.875 6.49728 7.67746 6.97419 7.32583 7.32583C6.97419 7.67746 6.49728 7.875 6 7.875C5.50272 7.875 5.02581 7.67746 4.67417 7.32583C4.32254 6.97419 4.125 6.49728 4.125 6ZM6 4.875C5.70163 4.875 5.41548 4.99353 5.2045 5.2045C4.99353 5.41548 4.875 5.70163 4.875 6C4.875 6.29837 4.99353 6.58452 5.2045 6.7955C5.41548 7.00647 5.70163 7.125 6 7.125C6.29837 7.125 6.58452 7.00647 6.7955 6.7955C7.00647 6.58452 7.125 6.29837 7.125 6C7.125 5.70163 7.00647 5.41548 6.7955 5.2045C6.58452 4.99353 6.29837 4.875 6 4.875Z" fill="#F8F8F8"/>
<path fill-rule="evenodd" clip-rule="evenodd" d="M2.1615 5.323C1.952 5.625 1.875 5.8615 1.875 6C1.875 6.1385 1.952 6.375 2.1615 6.677C2.3645 6.9685 2.6655 7.285 3.0465 7.5775C3.81 8.1635 4.8565 8.625 6 8.625C7.1435 8.625 8.19 8.1635 8.9535 7.5775C9.3345 7.285 9.6355 6.9685 9.8385 6.677C10.048 6.375 10.125 6.1385 10.125 6C10.125 5.8615 10.048 5.625 9.8385 5.323C9.6355 5.0315 9.3345 4.715 8.9535 4.4225C8.19 3.8365 7.1435 3.375 6 3.375C4.8565 3.375 3.81 3.8365 3.0465 4.4225C2.6655 4.715 2.3645 5.0315 2.1615 5.323ZM2.5895 3.8275C3.455 3.1635 4.658 2.625 6 2.625C7.342 2.625 8.545 3.1635 9.41 3.8275C9.8435 4.16 10.2015 4.531 10.4545 4.8955C10.7005 5.25 10.875 5.6385 10.875 6C10.875 6.3615 10.7 6.75 10.4545 7.1045C10.2015 7.469 9.8435 7.8395 9.4105 8.1725C8.5455 8.8365 7.342 9.375 6 9.375C4.658 9.375 3.455 8.8365 2.59 8.1725C2.1565 7.84 1.7985 7.469 1.5455 7.1045C1.3 6.75 1.125 6.3615 1.125 6C1.125 5.6385 1.3 5.25 1.5455 4.8955C1.7985 4.531 2.1565 4.1605 2.5895 3.8275Z" fill="#F8F8F8"/>
</svg>
